<svg xmlns="http://www.w3.org/2000/svg" viewBox="0 0 512 512" role="img" aria-labelledby="title desc">
	<title id="title">Parivesh Brand Icon</title>
	<desc id="desc">Blue shield with waves, leaf and checkmark</desc>
	<defs>
		<linearGradient id="shieldGrad" x1="0" y1="0" x2="0" y2="1">
			<stop offset="0%" stop-color="#2f5cff"/>
			<stop offset="100%" stop-color="#1c2adf"/>
		</linearGradient>
		<linearGradient id="waterGrad" x1="0" y1="0" x2="1" y2="1">
			<stop offset="0%" stop-color="#6be3ee"/>
			<stop offset="100%" stop-color="#3fbfd1"/>
		</linearGradient>
	</defs>

	<path d="M256 40c-44 22-100 41-168 52v148c0 121 66 189 168 232 102-43 168-111 168-232V92c-68-11-124-30-168-52z" fill="url(#shieldGrad)"/>

	<path d="M98 158h316c-4 8-8 16-14 24-17 24-42 44-73 44H184c-31 0-56-20-73-44-6-8-10-16-13-24z" fill="url(#waterGrad)"/>
	<path d="M123 214c26-18 52-18 78 0 26 18 52 18 78 0 26-18 52-18 78 0" fill="none" stroke="#5ad4e4" stroke-width="10" stroke-linecap="round"/>
	<path d="M113 252c29-20 58-20 87 0 29 20 58 20 87 0 29-20 58-20 87 0" fill="none" stroke="#5ad4e4" stroke-width="10" stroke-linecap="round"/>
	<path d="M104 289c31-20 62-20 93 0s62 20 93 0 62-20 93 0" fill="none" stroke="#5ad4e4" stroke-width="10" stroke-linecap="round"/>

	<path d="M261 67c18 8 32 23 37 40 5 18 1 38-12 57-24-2-42-15-52-33-10-18-10-42 2-64 9-1 17-1 25 0z" fill="#66dbe4"/>
	<path d="M255 60c-11 16-17 30-19 43 14 3 27 0 40-8 11-8 21-20 28-35-14-6-30-6-49 0z" fill="#7feaf0"/>
	<path d="M299 54c13 17 20 37 21 57" fill="none" stroke="#66dbe4" stroke-width="10" stroke-linecap="round"/>

	<path d="M222 389l27 26 47-47" fill="none" stroke="#2ec5d4" stroke-width="16" stroke-linecap="round" stroke-linejoin="round"/>
</svg>